<mxfile host="app.diagrams.net" modified="2023-05-01T08:44:12.360Z" agent="Mozilla/5.0 (Windows NT 10.0; Win64; x64) AppleWebKit/537.36 (KHTML, like Gecko) Chrome/112.0.0.0 Safari/537.36" version="21.2.3" etag="wuJDls4sMdDJsAbZMGbj" type="github">
  <diagram name="Страница 1" id="XhvlwZ6YLiLh4A_1hjAx">
    <mxGraphModel>
      <root>
        <mxCell id="0" />
        <mxCell id="1" parent="0" />
      </root>
    </mxGraphModel>
  </diagram>
</mxfile>
